<?xml version="1.0" encoding="UTF-8" standalone="no"?>
<svg
   xmlns:dc="http://purl.org/dc/elements/1.1/"
   xmlns:cc="http://creativecommons.org/ns#"
   xmlns:rdf="http://www.w3.org/1999/02/22-rdf-syntax-ns#"
   xmlns:svg="http://www.w3.org/2000/svg"
   xmlns="http://www.w3.org/2000/svg"
   viewBox="0 0 258.66666 258.66666"
   xml:space="preserve"
   id="svg2"
   version="1.1"><metadata
     id="metadata8"><rdf:RDF><cc:Work
         rdf:about=""><dc:format>image/svg+xml</dc:format><dc:type
           rdf:resource="http://purl.org/dc/dcmitype/StillImage" /></cc:Work></rdf:RDF></metadata><defs
     id="defs6" /><g
     transform="matrix(1.3333333,0,0,-1.3333333,0,258.66667)"
     id="g10"><g
       transform="scale(0.1)"
       id="g12"><path
         id="path14"
         style="fill:#ffffff;fill-opacity:1;fill-rule:evenodd;stroke:none"
         d="M 2.59766,1933.23 H 1930.16 V 5.66797 H 2.59766 V 1933.23" /><path
         id="path16"
         style="fill:#2a3e92;fill-opacity:1;fill-rule:evenodd;stroke:none"
         d="m 1405.11,877.527 c -10.59,-32.261 32.07,-33.273 41.42,-57.394 5.7,-7.735 3.06,-19.078 12.63,-25.008 16.16,-12.152 40.64,-15.93 47.88,-36.176 5.42,-11.019 16.47,-13.351 27.51,-13.605 4.46,2.402 10.41,4.515 12.48,10.195 3.24,8.359 4.7,17.32 -1.3,24.75 -7.17,2.652 -13.16,7.996 -21.51,7.668 l 1.49,-1.488 c 3.3,-3.856 2.74,-10.426 -2.62,-12.242 -6.59,5.339 -12.89,13.367 -13.82,22.316 0.48,26.844 -33.22,26.102 -36.61,51.148 1.17,4.473 5.64,5.989 10.12,5.114 16.75,-12.157 39.12,-10.571 55.29,-24.828 6.64,-19.95 34.42,-27.891 36.3,-49.954 17.05,-9.765 18.32,-28.554 25.25,-43.742 9.56,-2.633 20.29,-0.804 27.72,5.192 4.18,-1.172 5.69,-5.645 4.82,-10.121 4.8,-6.243 14.93,-3.516 21.48,-2.289 12.55,-3.532 6.65,-19.063 9.97,-28.602 1.21,-3.57 4.23,-11.906 -2.34,-12.531 l 28.64,0.121 -2.39,2.371 c -0.64,10.137 10.98,12.281 17.52,16.484 1.43,13.735 -11.42,21.727 -15.35,33.637 1.07,27.156 -26.13,38.969 -25.34,66.117 8.79,35.836 -33.94,51.762 -21.56,87.606 l -2.39,-0.012 c 5.58,21.504 -10.02,42.613 -15.48,63.773 7.64,25.981 7.79,61.483 -5.13,84.983 -0.64,7.16 7.11,10.48 13.67,9.01 28.96,-4.64 62.09,-11.37 88.93,-8.56 -3.59,0.87 -5.38,4.45 -6.3,7.72 2.08,4.19 6.54,8.98 12.5,7.52 15.51,-0.24 28.29,10.26 42.32,10.01 l -4.8,5.06 c -0.65,13.41 16.97,7.53 22.32,13.82 -44.14,-2.88 -91.04,13.62 -139.08,14.61 -32.24,5.53 -56.83,-33.05 -86.16,-8.13 -13.13,0.85 -28.31,-7.87 -38.8,2.53 l 6,63.86 c 13.65,16.17 36.99,-1.34 49.73,17.81 11.94,0.65 29.52,4.91 37.61,-3.72 7.16,-0.56 11.61,5.42 16.36,10.22 -4.79,2.06 -11.04,0.55 -16.42,1.11 -3.58,2.38 -9.25,4.15 -8.69,9.82 9.49,13.75 25.66,-0.2 37.55,9.11 0.99,8.51 -10.89,12.08 -12.61,19.65 l 0.01,-2.41 c 0.03,-6.56 -7.43,-6.59 -12.5,-6.32 -4.49,2.97 -5.7,7.43 -5.13,12.51 2.97,3.59 6.24,6.29 11.32,5.12 -22.1,3.18 -43.88,6.37 -66.26,8.66 1.81,-5.95 -2.95,-8.96 -6.21,-12.55 -3.86,-3.01 -8.35,-0.33 -11.35,2.33 -5.67,3.86 -3.02,9.54 -0.06,13.73 l -5.07,-0.03 c -5.08,2.07 -11.35,5.03 -8.7,12.49 l -19.99,-0.08 c -11.64,2.34 -4.25,18.18 -6.37,25.02 l -13.96,-13.77 c -1.38,-25.96 -30.28,-34.13 -48.43,-44.05 -0.81,-20 -21.05,-29.63 -32.33,-44 l 7.49,-6.23 c 3.62,-9.23 -5.29,-17.32 -12.43,-22.42 -4.68,-21.2 -4.59,-44.17 -14.95,-62.71 1.26,-15.2 -12.41,-26.3 -10.86,-40.02 -19.85,-31.41 -13.39,-77.011 -14.73,-112.808 8.74,-21.445 31.77,-36.559 41.7,-57.395 z m 67.62,-45.949 c 3,-5.949 12.55,-5.613 10.2,-13.973 -2.96,-5.382 -8.33,-5.109 -13.7,-4.832 -8.08,5.629 -7.23,15.481 -12.62,22.317 -9.01,13.086 -16.82,26.48 -30.29,37.461 0.56,8.351 7.39,14.047 15.14,16.465 27.18,-8.832 13.3,-41.399 31.27,-57.438 z m 36,92.625 c -3.89,1.777 -2.42,5.953 -3.62,8.637 2.64,7.769 11.91,3.031 13.67,11.398 5.56,22.692 -38.59,26.383 -10.34,46.188 13.44,-3.821 30.72,-0.469 38.84,-14.746 -0.27,-7.164 6.02,-13.098 2.76,-19.981 -16.97,-5.437 -19.53,-34.98 -41.31,-31.496 z m 124.77,-160.84 -3.87,-2.699 c -10.48,10.395 -30.48,13.594 -31.45,31.188 -27.81,16.582 -17.83,53.613 -47.71,64.82 -3.6,5.648 -9.29,11.898 -5.15,18.773 6.52,10.168 16.33,17.668 28.57,16.528 8.66,-3.844 4.23,-13.407 9.03,-18.758 25.13,-18.68 39.56,-45.469 37.9,-75 9.29,-9.512 15.01,-22.02 12.68,-34.852 z m 45.14,-22.476 c 0.62,-6.86 -5.32,-13.153 -11.26,-14.961 -3,-0.012 -5.68,1.168 -7.49,3.547 -5.41,9.812 6.13,29.859 -10.27,31.273 -3.6,5.359 1.45,10.149 5.01,14.047 15.53,-3.813 15.91,-22.605 24.01,-33.906 z m -20.54,58.672 c -3.85,-4.485 -10.41,-6.606 -16.09,-3.641 -6.88,5.633 -8.71,13.379 -7.55,22.336 8.63,3.914 -3.04,11.621 6.2,15.238 10.77,-7.113 19.77,-19.301 17.44,-33.933 z m -27.8,85.203 c 3.03,-12.52 4.28,-25.938 9.11,-37.551 l 3.58,-1.18 c -4.47,-0.613 -3.56,-5.383 -3.54,-8.965 -8.05,-1.523 -9.9,10.993 -15.28,16.344 -12.86,6.805 -23.94,17.793 -26.39,32.399 -1.22,6.562 2.02,13.726 8.58,14.953 11.93,1.25 16.75,-9.18 23.94,-16 z m -103.47,198.508 c 16.7,1.56 29.56,-6.73 43.9,-11.14 2.65,7.76 11.02,3.92 16.1,1.26 27.84,-23.45 35.78,-64.58 24.28,-94.757 -1.47,-7.164 -6.2,-15.539 -11.27,-18.828 -2.38,-0.914 -9.85,2.035 -12.51,-2.75 3.02,-9.235 15.56,-11.563 17.7,-22.297 1.51,-5.356 -2.06,-9.551 -6.22,-11.36 -17.56,-9.027 -20.1,26.168 -37.64,13.559 -2.39,-0.309 -4.78,0.277 -6.28,2.356 -0.32,5.375 5.03,9.265 8.9,11.378 l 2.39,0.008 c 0.47,29.832 -22.9,53.601 -40.3,76.191 0.22,18.79 -6.73,39.05 0.95,56.38 z m -24.3,101.32 c 9.85,-0.26 11.99,-12.18 16.49,-18.72 -11.47,-37.64 -17.56,-79.42 -23.36,-117.63 -2.38,-0.9 -3.59,0.88 -5.08,2.37 -5.28,46.8 2.59,91.58 11.95,133.98 z m -89.18,-209.485 c 17.61,-2.91 32.28,-16.574 43.98,-31.136 -2.36,-5.969 4.82,-10.121 8.7,-11.301 12.81,2.145 22.1,-7.355 31.36,-10.902 2.13,-8.344 -7.41,-10.164 -12.47,-12.575 -16.11,2.317 -32.53,4.93 -48.65,7.247 -10.45,4.726 -23.02,11.828 -27.84,22.25 0.85,11.941 -12.36,30.972 4.92,36.417" /><path
         id="path18"
         style="fill:#2a3e92;fill-opacity:1;fill-rule:evenodd;stroke:none"
         d="m 1633.92,1222.46 -0.02,3.85 c -0.32,-1.41 -0.25,-2.67 0.02,-3.85" /><path
         id="path20"
         style="fill:#2a3e92;fill-opacity:1;fill-rule:evenodd;stroke:none"
         d="m 235.367,782.418 64.688,0.285 -0.313,73.68 c 2.074,2.992 5.031,8.965 10.106,7.5 15.027,-26.188 27.972,-53.574 40.32,-80.965 l 71.59,0.305 c -18.973,41.984 -40.629,82.757 -56.93,126.234 l 56.199,42.606 -30.121,-0.141 -87.429,-63.012 -3.891,3.863 -0.258,58.762 -65.027,0.918 c 1.73,-55.781 -0.672,-112.769 1.066,-170.035" /><path
         id="path22"
         style="fill:#2a3e92;fill-opacity:1;fill-rule:evenodd;stroke:none"
         d="m 469.168,784.277 c 0,0 4.754,14.922 10.078,19.18 l 68.598,0.289 c 6.586,-6.23 5.996,-15.301 12.582,-20.648 l 66.551,-0.528 -72.02,170.059 -26.547,-0.117 -76.828,-169.157 c 9.219,-4.773 17.586,0.922 17.586,0.922 z m 44.656,91.817 2.391,0.008 c 7.832,-18.161 18.808,-36.188 23.668,-55.555 l -49.684,0.555 c 4.094,18.214 15.946,36.757 23.625,54.992" /><path
         id="path24"
         style="fill:#2a3e92;fill-opacity:1;fill-rule:evenodd;stroke:none"
         d="m 694.469,896.641 c 17.148,-33.032 37.953,-79.567 53.918,-113.5 8.054,0.031 12.824,0.351 19.988,-1.118 17.164,32.887 57.113,106.743 57.113,106.743 l 0.121,-106.485 66.559,-0.488 -0.734,169.895 -62.34,0.917 c -18.078,-28.71 -27.477,-61.859 -46.149,-89.082 -15.937,29.161 -28.601,59.532 -44.234,88.7 l -61.145,-0.262 -0.468,-169.137 16.105,0.078 1.266,113.739" /><path
         id="path26"
         style="fill:#2a3e92;fill-opacity:1;fill-rule:evenodd;stroke:none"
         d="m 968.73,807.914 c 15.887,-3.898 65.5,-3.094 65.5,-3.094 0,0 6.21,-7.121 8.27,-21.617 l 66.22,0.281 -70.43,168.836 -27.74,-0.113 -71.859,-168.258 c 17.645,-9.765 21.719,16.766 30.039,23.965 z m 30.708,70.262 24.112,-56.278 -50.124,1.274 z" /><path
         id="path28"
         style="fill:#2a3e92;fill-opacity:1;fill-rule:evenodd;stroke:none"
         d="m 1137,935.141 c 15.82,-1.125 33.99,3.425 47.45,-3.672 -7.09,-17.332 -24.32,-32.324 -20.96,-52.586 10.15,-1.156 22.36,3.375 30.15,-3.453 -16.28,-30.801 -32.84,-62.785 -46.14,-92.973 l 70.09,0.309 44.69,85.199 1.42,14.023 c -5.44,17.282 -25.36,4.367 -35.25,13.575 7.07,19.417 20.43,36.179 28.7,55.003 l -117.83,2.184 c -8.35,-2.121 0.05,-12.531 -2.32,-17.609" /><path
         id="path30"
         style="fill:#2a3e92;fill-opacity:1;fill-rule:evenodd;stroke:none"
         d="m 162.98,737.18 h 1152.34 c 10.28,0 18.64,8.371 18.64,18.648 v 226.231 c 0,10.285 -8.36,18.651 -18.64,18.651 H 162.98 c -10.281,0 -18.648,-8.366 -18.648,-18.651 V 755.828 c 0,-10.277 8.367,-18.648 18.648,-18.648 z m -6.722,244.879 c 0,3.703 3.015,6.718 6.722,6.718 h 1152.34 c 3.7,0 6.71,-3.015 6.71,-6.718 V 755.828 c 0,-3.703 -3.01,-6.719 -6.71,-6.719 H 162.98 c -3.707,0 -6.722,3.016 -6.722,6.719 v 226.231" /><path
         id="path32"
         style="fill:#2a3e92;fill-opacity:1;fill-rule:evenodd;stroke:none"
         d="M 148.168,657.961 H 1778.8 v 26.977 H 148.168 v -26.977" /></g></g></svg>